<?xml version="1.0" encoding="utf-8"?>
<!-- Generator: Adobe Illustrator 24.1.2, SVG Export Plug-In . SVG Version: 6.00 Build 0)  -->
<svg version="1.1" id="Слой_1" xmlns="http://www.w3.org/2000/svg" xmlns:xlink="http://www.w3.org/1999/xlink" x="0px" y="0px"
	 viewBox="0 0 716.6 211.5" style="enable-background:new 0 0 716.6 211.5;" xml:space="preserve">
<path class="st0" d="M580.8,13.4l0.5,3.3c1.5,9.5-5.1,18.5-14.6,19.9l-3.4,0.5c-0.5,0.1-1-0.1-1.4-0.4c-0.3-0.3-0.5-0.6-0.6-1.1
	l-0.5-3.5c-1.5-9.5,5.1-18.5,14.6-19.9l3.1-0.5c0.5-0.1,1,0.1,1.5,0.3C580.4,12.4,580.7,12.9,580.8,13.4z"/>
<path class="st1" d="M74.5,164.4c-12.2,0-23.4-5.6-32.3-15C28.6,135.1,20,111.8,20,85.3s8.6-49.8,22.2-64.1c9-9.4,20.1-15,32.3-15
	s23.4,5.6,32.3,15C120.4,35.5,129,58.8,129,85.3s-8.6,49.8-22.2,64.1C97.9,158.8,86.7,164.4,74.5,164.4z M74.5,2.9
	C26.7,2.9,1.3,39.7,1.3,85.3s25.4,82.4,73.2,82.4s73.2-36.8,73.2-82.4S122.3,2.9,74.5,2.9z"/>
<path class="st1" d="M268.6,155.3V76.6c0-8.5-2.2-16-7.4-21.3c-5.2-5.3-13.3-8.6-25.4-8.6c-9.5,0-18.6,4.4-26,9.8
	c-7.4,5.3-13.1,11.5-16.1,15V47.9c0-0.4-0.2-0.8-0.6-1.1c-0.4-0.2-0.8-0.3-1.2-0.1l-15.1,7.4c-0.4,0.2-0.7,0.7-0.7,1.2
	c0,0,0.1,3.8,0.1,11.5v88.3c0,9.5-0.1,11-0.1,11c0,0.4,0.1,0.7,0.3,1s0.6,0.4,0.9,0.4h15c0.6,0,1.2-0.5,1.2-1.1
	c0,0,0.1-1.6,0.1-11.2V76.6c1.4-1.7,8-9.9,16.8-16.6c6.5-4.9,14.1-9.1,21.6-9.1c5.7,0,9.7,1.2,12.5,3.3c3.2,2.4,4.8,5.9,5.6,9.7
	c0.9,4.1,0.8,8.5,0.8,12.5v78.7c0,9.7,0.2,11.2,0.2,11.2c0.1,0.6,0.6,1.1,1.2,1.1h14.8c0.7,0,1.2-0.6,1.2-1.2
	C268.6,166.4,268.6,164.8,268.6,155.3z"/>
<path class="st1" d="M312.1,107.1c0-19.3,5.5-36.1,14.7-46.4C332.9,54,340.6,50,349.4,50c18,0,30.3,16.3,34.5,39.4
	c-11.5,3-27.3,7.2-38.9,10.2l0,0c-14.7,3.9-24.9,11.3-28.8,20.8c-0.8,1.9-1.3,3.9-1.6,5.9C313,120.4,312.1,114,312.1,107.1z
	 M353.3,161.8c-13.3,0-25.2-8-32.8-21c-3.2-6.7-3.7-13.4-1.2-19.1l0,0c3.6-8.7,13.1-15.2,26.6-18.9c12-3.1,28.3-7.4,40.1-10.5
	l14.8-3.9c0.3-0.1,0.6-0.3,0.8-0.6c0.2-0.3,0.2-0.6,0.1-1c-6.5-23.4-24.5-40.2-52.2-40.2c-35.2,0-54.8,27.1-54.8,60.5
	s19.6,60.5,54.8,60.5c28.6,0,46.7-17.9,52.7-42.5c0.2-0.7-0.2-1.3-0.9-1.5l-1-0.2c-0.3-0.1-0.7,0-1,0.1s-0.5,0.5-0.6,0.8
	C392.2,151.7,373.6,161.8,353.3,161.8z"/>
<path class="st1" d="M579.8,153.1V47.9c0-0.4-0.2-0.8-0.6-1.1c-0.4-0.2-0.8-0.3-1.2-0.1l-15.1,7.4c-0.4,0.2-0.7,0.7-0.7,1.2
	c0,0,0.2,3.8,0.2,11.5v88.3c0,9.5-0.1,11-0.1,11c0,0.4,0.1,0.7,0.3,1s0.6,0.4,0.9,0.4l15.2,0.1c0.3,0,0.7-0.1,0.9-0.4
	c0.2-0.2,0.4-0.6,0.4-0.9C579.8,166.4,579.8,164.5,579.8,153.1z"/>
<path class="st1" d="M444.8,81.7c0-18,12.2-31.7,30.4-31.7s30.4,13.7,30.4,31.7s-12.2,31.7-30.4,31.7S444.8,99.7,444.8,81.7z
	 M502.8,53.1c-7.1-4-16.4-6.4-27.7-6.4c-29.1,0-45.2,15.8-45.2,35.1c0,13,7.2,24.4,20.9,30.5c-4.1,1.6-8.6,3.2-12.4,5.3
	c-5,2.8-8.6,6.7-8.6,12.9c0,5.7,3.6,9.5,9.4,11.9c8,3.4,20.6,4.1,32.9,4.1h16.7c11,0,22.9-0.4,32.2,1.7c8.7,1.9,14.9,6.1,14.9,15.4
	c0,10.2-5.8,18-14.3,23.8c-13,8.9-32.1,12.9-46.5,12.9c-12,0-24-2.2-33.1-7c-8.8-4.8-14.8-12.1-14.8-22.7c0-7.9,3.4-13.8,7.4-18.2
	c0.3-0.3,0.4-0.8,0.3-1.2s-0.4-0.7-0.8-0.9c-8.6-2.7-24.5,3.8-24.5,22.9c0,17.8,16.9,38.3,61.8,38.3c24.7,0,44.2-9,55.8-21.1
	c7.9-8.2,12.2-17.7,12.2-26.8c0-20.9-15.3-33.9-54.2-33.9H470c-9.6,0-22,0.2-28.6-1.8c-1.2-0.4-2.3-0.8-3-1.4
	c-0.5-0.4-0.8-0.8-0.8-1.4c0-1.8,1.5-3.2,3.5-4.5c3.6-2.3,9.1-4.3,14.3-6.5c5.6,1.8,12.2,2.9,19.5,2.9c29.1,0,45.2-15.8,45.2-35.1
	c0-10.8-5.1-20.5-14.7-27L502.8,53.1z"/>
<path class="st1" d="M652.7,102.3L652.7,102.3c0.2,0.3,0.5,0.4,0.9,0.4l0,0C653.3,102.7,653,102.6,652.7,102.3L652.7,102.3z
	 M653.9,102.8c0.1,0,0.2,0,0.4-0.1c5.2-2.3,11.2-4.8,16.4-8.3c3.7-2.5,6.9-5.4,9.2-9v62c-9.4,7.8-21,16.2-32.6,16.2
	c-13.5,0-23.2-9.1-23.2-23.2C624,123.7,636.6,110.1,653.9,102.8z M702.8,161.4c-1.4,0-2.6-0.3-3.4-1.1c-1.4-1.3-2-3.8-2-7.6V76.6
	c0-12.3-10.3-29.9-38.7-29.9c-21.7,0-33.2,7.2-37.7,13.9c-2.3,3.4-3.3,8.1-2.7,12.5c0.6,4.5,2.8,8.6,6.8,10.7c0.3,0.2,0.7,0.2,1.1,0
	c0.3-0.1,0.6-0.4,0.7-0.8c3.1-10.2,8.8-20,16-26.2c4.7-4,10.1-6.5,15.9-6.5c5.6,0,10,1.5,13.3,4.2c5.1,4.2,7.5,11.3,7.8,20.3
	c-0.4,6.7-4.2,11.6-9,15.3c-5.1,3.9-11.4,6.6-16.7,8.9l0,0c-13,5.8-24.7,10.3-33.3,16.4c-8.8,6.2-14.3,14.1-14.3,26.2
	c0,10.1,5.3,16.6,12.8,20.7c7.3,3.9,16.6,5.4,25,5.4c14.7,0,27.5-9.2,35.5-15.9c0.5,6,2.6,9.8,5.5,12.2c3.3,2.7,7.7,3.7,12,3.7
	c8.8,0,16.5-6.7,16.5-17.2c0-0.7-0.6-1.2-1.2-1.2h-0.6c-0.3,0-0.7,0.1-0.9,0.4c-0.2,0.2-0.4,0.6-0.4,0.9c0.1,3.3-1.2,6.6-3.3,8.8
	C706.1,160.5,704.5,161.4,702.8,161.4z"/>
</svg>
